<svg data-v-fde0c5aa="" xmlns="http://www.w3.org/2000/svg" viewBox="0 0 300 300" class="iconLeftSlogan"><!----><defs data-v-fde0c5aa=""><!----></defs><rect data-v-fde0c5aa="" fill="transparent" x="0" y="0" width="300px" height="300px" class="logo-background-square"></rect><defs data-v-fde0c5aa=""><!----></defs><g data-v-fde0c5aa="" id="e76661d5-0c2a-43f2-9c5b-1d9667143f81" fill="#000000" transform="matrix(2.8530362065610557,0,0,2.8530362065610557,133.9813946198298,112.63938234374069)"><path d="M3.98 5.81C4.89 5.81 5.40 6.17 5.50 7.08L7.43 7.08C7.25 4.86 5.89 4.09 3.93 4.09C1.81 4.09 0.66 5.14 0.66 7.07C0.66 9.23 2.00 9.84 3.57 10.26C5.12 10.68 5.61 11.07 5.61 11.93C5.61 12.96 5.18 13.37 4.05 13.37C2.87 13.37 2.42 12.87 2.38 12.03L0.48 12.03C0.48 13.71 1.44 15.09 3.96 15.09C6.54 15.09 7.59 13.97 7.59 11.90C7.59 9.66 5.96 8.97 4.24 8.53C3.02 8.20 2.59 7.85 2.59 7.00C2.59 6.19 2.98 5.81 3.98 5.81ZM12.40 10.93L13.79 14.92L15.96 14.92L14.17 10.37C15.11 9.94 15.62 9.11 15.62 7.69L15.62 7.39C15.62 5.17 14.38 4.26 12.04 4.26L8.93 4.26L8.93 14.92L10.85 14.92L10.85 10.93ZM10.85 6.03L12.05 6.03C13.15 6.03 13.65 6.27 13.65 7.49L13.65 7.66C13.65 8.79 13.30 9.17 12.12 9.17L10.85 9.17ZM26.01 11.54C26.01 12.75 25.51 13.31 24.30 13.31C22.89 13.31 22.51 12.77 22.51 11.28L22.51 7.95C22.51 6.50 23.00 5.89 24.28 5.89C25.47 5.89 26.01 6.36 26.01 7.50L26.01 7.66L27.99 7.66L27.99 7.55C27.97 5.28 26.80 4.09 24.28 4.09C21.73 4.09 20.52 5.36 20.52 7.92L20.52 11.30C20.52 13.78 21.62 15.09 24.25 15.09C26.89 15.09 27.97 13.89 27.97 11.38L27.97 9.28L24.25 9.28L24.25 10.99L26.01 10.99ZM35.63 4.26L29.62 4.26L29.62 14.92L31.57 14.92L31.57 10.50L35.01 10.50L35.01 8.79L31.57 8.79L31.57 6.02L35.63 6.02ZM41.92 14.92L44.17 14.92L41.37 9.52L44.13 4.26L41.89 4.26L40.22 8.04L38.47 4.26L36.22 4.26L38.92 9.46L36.08 14.92L38.30 14.92L40.05 10.92Z"></path></g><defs data-v-fde0c5aa=""><linearGradient data-v-fde0c5aa="" gradientTransform="rotate(25)" id="67539217-5670-491f-8911-f9e1a006a40a" x1="0%" y1="0%" x2="100%" y2="0%"><stop data-v-fde0c5aa="" offset="0%" stop-color="#08C7D6" stop-opacity="1"></stop><stop data-v-fde0c5aa="" offset="100%" stop-color="#02023E" stop-opacity="1"></stop></linearGradient></defs><g data-v-fde0c5aa="" id="0e62c2aa-399f-45d0-ac89-dd77a8f4b464" stroke="none" fill="url(#67539217-5670-491f-8911-f9e1a006a40a)" transform="matrix(0.6433612765994361,0,0,0.6433612765994361,40.000303350597,114.29461981572706)"><path d="M34.46 37.32l7.09 16.21a23.93 23.93 0 0 1 2.35-4.62l-5-11.33 3.29-1.4 4.16 9.52a24.2 24.2 0 0 1 3.13-2.84l-3.61-8.25 3.29-1.4 3.36 7.68a25.63 25.63 0 0 1 6.74-2.44c-.12-1.22-.21-2.4-.26-3.51a11.16 11.16 0 0 1 5-1 11.16 11.16 0 0 1 5 .95c-.05 1.12-.14 2.3-.26 3.51a25.63 25.63 0 0 1 6.74 2.44l3.36-7.68 3.29 1.4-3.61 8.25a24.2 24.2 0 0 1 3.13 2.84l4.16-9.52 3.29 1.4-5 11.33a23.93 23.93 0 0 1 2.35 4.62l7.09-16.21 4.29-9.81a2 2 0 0 0 .17-.81L97.93 8A2.11 2.11 0 0 0 97 6.36a2 2 0 0 0-2.51.17l-13.8 12.78a2 2 0 0 0-.48.67l-4.3 9.84-3.05 7c.37-5.19.07-10.57-2.25-12.87l-.12-.1a11.19 11.19 0 0 0 1.25-8C70.4 10 64.51 6.43 64.26 6.28a2 2 0 0 0-2.85 2.52 1.7 1.7 0 0 1-.41 1.83c-2.87 2-4.52 4.4-4.91 7.14A10 10 0 0 0 57.36 24c-2.29 2.31-2.59 7.67-2.22 12.83l-3.05-7L47.78 20a2 2 0 0 0-.48-.67L33.48 6.53a2.07 2.07 0 0 0-2.55-.14A2 2 0 0 0 30.07 8L30 26.71a2 2 0 0 0 .17.81zm59.48-24.81L94 25.32l-2.12.78-.1-3.91a2 2 0 0 0-3.25-1.51l-3.27 2.62-.83-2zM60.05 18.3c.25-1.62 1.37-3.12 3.35-4.47l.2-.16a6 6 0 0 0 1.33-1.77 10.33 10.33 0 0 1 2.9 4.84 7.37 7.37 0 0 1-1.06 5.52 15.83 15.83 0 0 0-5.76 0 6.15 6.15 0 0 1-.96-3.96zm-26-5.79l9.51 8.79-.83 2-3.25-2.61a2 2 0 0 0-3.25 1.51l-.1 3.91-2.13-.79zM57.42 66.7h13.16L64 55.3l-6.58 11.4z"></path><path d="M64 42a20 20 0 1 0 20 20 20 20 0 0 0-20-20zm11.78 27.7a2 2 0 0 1-1.74 1H54a2 2 0 0 1-1.74-1 2 2 0 0 1 0-2l10.01-17.4a2 2 0 0 1 3.46 0l10.05 17.4a2 2 0 0 1 0 2z"></path><path d="M127.07 101.31L106 88V35a2 2 0 0 0-2-2h-4.2L87.92 60.16c0 .61.08 1.22.08 1.84a24 24 0 0 1-48 0c0-.62 0-1.23.08-1.84L28.2 33H24a2 2 0 0 0-2 2v53L.93 101.31A2 2 0 0 0 2 105h124a2 2 0 0 0 1.07-3.69zM8.92 101l15.84-10h78.48l15.84 10z"></path></g><defs data-v-fde0c5aa=""><!----></defs><g data-v-fde0c5aa="" id="fc1ba6c1-5da2-4c93-a1ad-fa5bd357a888" fill="#000000" transform="matrix(0.3984565204646992,0,0,0.3984565204646992,134.90059618717135,164.85494048110974)"><path d="M5.04 2.21L1.13 2.21L1.13 11.48L5.04 11.48C7.25 11.48 9.30 9.74 9.30 6.85C9.30 3.95 7.25 2.21 5.04 2.21ZM5.00 10.49L2.18 10.49L2.18 3.21L5.00 3.21C6.97 3.21 8.25 4.86 8.25 6.85C8.25 8.83 6.97 10.49 5.00 10.49ZM24.81 3.22L24.81 2.21L17.99 2.21L17.99 11.48L24.81 11.48L24.81 10.47L19.04 10.47L19.04 7.35L24.19 7.35L24.19 6.33L19.04 6.33L19.04 3.22ZM34.01 4.65C34.01 4.03 34.37 3.08 36.47 3.08C38.16 3.08 38.95 3.82 39.06 4.75L40.14 4.75C40.05 3.36 38.93 2.10 36.47 2.10C34.15 2.10 32.98 3.15 32.98 4.66C32.98 7.84 39.33 6.69 39.33 8.96C39.33 10.05 38.35 10.60 36.78 10.60C35.17 10.60 33.87 10.05 33.80 8.71L32.70 8.71C32.84 10.37 33.96 11.59 36.71 11.59C38.99 11.59 40.38 10.64 40.38 8.92C40.38 5.68 34.01 6.80 34.01 4.65ZM50.05 2.21L49 2.21L49 11.48L50.05 11.48ZM63.29 2.10C60.51 2.10 58.73 4.21 58.73 6.85C58.73 9.48 60.44 11.59 63.27 11.59C64.95 11.59 66.04 10.74 66.63 9.84L66.63 11.48L67.59 11.48L67.59 6.55L63.24 6.55L63.24 7.50L66.63 7.50C66.63 9.44 65.03 10.57 63.35 10.57C61.10 10.57 59.78 8.93 59.78 6.85C59.78 4.76 61.12 3.12 63.38 3.12C64.79 3.12 65.80 3.74 66.36 4.73L67.51 4.73C66.82 3.18 65.28 2.10 63.29 2.10ZM83.38 2.21L83.38 10.01L77.66 2.21L76.44 2.21L76.44 11.48L77.49 11.48L77.49 3.65L83.22 11.48L84.43 11.48L84.43 2.21ZM109.26 3.70L111.76 11.48L112.95 11.48L115.84 2.21L114.73 2.21L112.35 10.00L109.86 2.21L108.65 2.21L106.16 10.00L103.78 2.21L102.68 2.21L105.56 11.48L106.75 11.48ZM125.15 2.21L124.10 2.21L124.10 11.48L125.15 11.48ZM140.99 2.21L133.48 2.21L133.48 3.22L136.71 3.22L136.71 11.48L137.76 11.48L137.76 3.22L140.99 3.22ZM155.76 2.21L155.76 6.33L150.37 6.33L150.37 2.21L149.32 2.21L149.32 11.48L150.37 11.48L150.37 7.35L155.76 7.35L155.76 11.48L156.81 11.48L156.81 2.21ZM180.04 10.57C177.79 10.57 176.53 8.93 176.53 6.85C176.53 4.76 177.79 3.12 180.04 3.12C181.57 3.12 182.57 3.85 183.05 4.98L184.16 4.98C183.57 3.29 182.06 2.10 179.96 2.10C177.17 2.10 175.48 4.21 175.48 6.85C175.48 9.48 177.17 11.59 179.96 11.59C182.06 11.59 183.57 10.40 184.16 8.71L183.05 8.71C182.57 9.84 181.57 10.57 180.04 10.57ZM193.77 7.92L196.99 7.92L199.23 11.48L200.48 11.48L198.04 7.74C199.08 7.50 200.28 6.90 200.28 5.11C200.28 3.35 199.07 2.21 197.16 2.21L192.72 2.21L192.72 11.48L193.77 11.48ZM193.77 3.21L197.04 3.21C198.35 3.21 199.23 3.93 199.23 5.11C199.23 6.55 197.97 6.93 196.98 6.93L193.77 6.93ZM215.91 3.22L215.91 2.21L209.09 2.21L209.09 11.48L215.91 11.48L215.91 10.47L210.14 10.47L210.14 7.35L215.29 7.35L215.29 6.33L210.14 6.33L210.14 3.22ZM228.76 2.21L227.44 2.21L223.51 11.48L224.67 11.48L225.81 8.79L230.40 8.79L231.53 11.48L232.69 11.48ZM226.21 7.83L228.10 3.30L229.99 7.83ZM246.62 2.21L239.11 2.21L239.11 3.22L242.34 3.22L242.34 11.48L243.39 11.48L243.39 3.22L246.62 3.22ZM256.00 2.21L254.95 2.21L254.95 11.48L256.00 11.48ZM271.74 2.21L268.53 10.29L265.33 2.21L264.18 2.21L267.93 11.48L269.14 11.48L272.89 2.21ZM282.11 2.21L281.06 2.21L281.06 11.48L282.11 11.48ZM297.96 2.21L290.44 2.21L290.44 3.22L293.68 3.22L293.68 11.48L294.73 11.48L294.73 3.22L297.96 3.22ZM310.09 7.81L313.96 2.21L312.69 2.21L309.55 6.72L306.42 2.21L305.14 2.21L309.04 7.81L309.04 11.48L310.09 11.48Z"></path></g></svg>