<svg data-v-423bf9ae="" xmlns="http://www.w3.org/2000/svg" viewBox="0 0 238.30908341841263 60" class="font"><!----><!----><!----><g data-v-423bf9ae="" id="09930f9b-040d-4e53-8a05-c47e75cef22e" fill="white" transform="matrix(5.454545454545454,0,0,5.454545454545454,-2.618180231614531,-22.309091741388492)"><path d="M3.98 5.81C4.89 5.81 5.40 6.17 5.50 7.08L7.43 7.08C7.25 4.86 5.89 4.09 3.93 4.09C1.81 4.09 0.66 5.14 0.66 7.07C0.66 9.23 2.00 9.84 3.57 10.26C5.12 10.68 5.61 11.07 5.61 11.93C5.61 12.96 5.18 13.37 4.05 13.37C2.87 13.37 2.42 12.87 2.38 12.03L0.48 12.03C0.48 13.71 1.44 15.09 3.96 15.09C6.54 15.09 7.59 13.97 7.59 11.90C7.59 9.66 5.96 8.97 4.24 8.53C3.02 8.20 2.59 7.85 2.59 7.00C2.59 6.19 2.98 5.81 3.98 5.81ZM12.40 10.93L13.79 14.92L15.96 14.92L14.17 10.37C15.11 9.94 15.62 9.11 15.62 7.69L15.62 7.39C15.62 5.17 14.38 4.26 12.04 4.26L8.93 4.26L8.93 14.92L10.85 14.92L10.85 10.93ZM10.85 6.03L12.05 6.03C13.15 6.03 13.65 6.27 13.65 7.49L13.65 7.66C13.65 8.79 13.30 9.17 12.12 9.17L10.85 9.17ZM26.01 11.54C26.01 12.75 25.51 13.31 24.30 13.31C22.89 13.31 22.51 12.77 22.51 11.28L22.51 7.95C22.51 6.50 23.00 5.89 24.28 5.89C25.47 5.89 26.01 6.36 26.01 7.50L26.01 7.66L27.99 7.66L27.99 7.55C27.97 5.28 26.80 4.09 24.28 4.09C21.73 4.09 20.52 5.36 20.52 7.92L20.52 11.30C20.52 13.78 21.62 15.09 24.25 15.09C26.89 15.09 27.97 13.89 27.97 11.38L27.97 9.28L24.25 9.28L24.25 10.99L26.01 10.99ZM35.63 4.26L29.62 4.26L29.62 14.92L31.57 14.92L31.57 10.50L35.01 10.50L35.01 8.79L31.57 8.79L31.57 6.02L35.63 6.02ZM41.92 14.92L44.17 14.92L41.37 9.52L44.13 4.26L41.89 4.26L40.22 8.04L38.47 4.26L36.22 4.26L38.92 9.46L36.08 14.92L38.30 14.92L40.05 10.92Z"></path></g><!----><!----></svg>